<svg width="5" height="8" viewBox="0 0 5 8" fill="none" xmlns="http://www.w3.org/2000/svg">
<path d="M4.19496 6.30801L1.6083 3.72135L4.19496 1.13468C4.25668 1.07296 4.30564 0.999685 4.33905 0.919043C4.37245 0.8384 4.38964 0.751968 4.38964 0.66468C4.38964 0.577393 4.37245 0.490961 4.33905 0.410318C4.30564 0.329676 4.25668 0.256402 4.19496 0.194681C4.13324 0.132959 4.05997 0.0839992 3.97932 0.0505959C3.89868 0.0171926 3.81225 -6.50338e-10 3.72496 0C3.63768 6.5034e-10 3.55124 0.0171926 3.4706 0.0505959C3.38996 0.0839992 3.31668 0.132959 3.25496 0.194681L0.194963 3.25468C0.13316 3.31636 0.0841287 3.38962 0.0506744 3.47026C0.0172201 3.55091 0 3.63737 0 3.72468C0 3.81199 0.0172201 3.89845 0.0506744 3.9791C0.0841287 4.05975 0.13316 4.133 0.194963 4.19468L3.25496 7.25468C3.51496 7.51468 3.93496 7.51468 4.19496 7.25468C4.4483 6.99468 4.45496 6.56801 4.19496 6.30801Z" fill="currentColor"/>
</svg>
