<svg width="45" height="45" viewBox="0 0 45 45" fill="none" xmlns="http://www.w3.org/2000/svg">
<g filter="url(#filter0_d_6869_22494)">
<g clip-path="url(#clip0_6869_22494)">
<rect x="2.10547" y="1.57812" width="40" height="40" rx="8" fill="white"/>
<g clip-path="url(#clip1_6869_22494)">
<path d="M31.1114 18.9005L5.93359 59.8033L40.3593 55.4545L43.9372 41.4641L31.1154 18.8965L31.1114 18.9005Z" fill="#D968D3"/>
<path d="M14.5391 43.6412C15.2257 43.6533 21.9117 43.7336 22.8272 40.9588C23.1164 40.0874 22.9678 38.5133 22.3293 38.2724C21.8836 38.1037 21.1287 38.5535 21.1287 38.943C21.1287 39.8023 24.7828 40.9508 28.1238 40.6295C31.3965 40.3163 35.0909 38.5213 35.0266 36.9472C34.9945 36.1521 33.9946 35.2928 33.2919 35.4293C32.6614 35.5538 32.0912 36.5095 32.2759 37.2042C32.7016 38.8426 37.5645 40.0232 40.8372 38.0636C42.327 37.1721 43.1181 35.855 43.4955 35.084" stroke="white" stroke-width="0.194932" stroke-miterlimit="10"/>
<path d="M25.3524 30.6387L51.1405 22.5794L27.7095 9.09098C26.4968 8.25975 25.1395 7.63331 23.6979 7.34821C19.9675 6.61335 15.9197 7.62127 12.892 10.5205C8.67159 14.5602 7.94878 21.1699 11.1934 26.0247C13.5305 29.5223 17.277 31.3856 21.0918 31.4619C22.5535 31.494 23.9991 31.1767 25.3564 30.6346L25.3524 30.6387Z" fill="#00C8AA"/>
<path d="M20.8753 29.0611C26.2689 29.0611 30.6412 24.6888 30.6412 19.2952C30.6412 13.9017 26.2689 9.5293 20.8753 9.5293C15.4817 9.5293 11.1094 13.9017 11.1094 19.2952C11.1094 24.6888 15.4817 29.0611 20.8753 29.0611Z" fill="#D968D3"/>
<mask id="mask0_6869_22494" style="mask-type:luminance" maskUnits="userSpaceOnUse" x="11" y="9" width="20" height="21">
<path d="M20.8753 29.0611C26.2689 29.0611 30.6412 24.6888 30.6412 19.2952C30.6412 13.9017 26.2689 9.5293 20.8753 9.5293C15.4817 9.5293 11.1094 13.9017 11.1094 19.2952C11.1094 24.6888 15.4817 29.0611 20.8753 29.0611Z" fill="white"/>
</mask>
<g mask="url(#mask0_6869_22494)">
<path d="M29.364 11.9622L25.0031 9.04688L15.454 9.70945L11.2095 14.5161L10.1133 14.5282C10.1133 14.5282 11.4224 21.5314 15.0123 15.2951C15.4821 16.9054 16.8635 20.1098 19.6182 15.4718C20.1402 17.1463 21.5577 20.0295 24.2883 15.271H24.2964C24.7903 16.9777 26.3242 20.5756 29.4644 14.4639L29.364 11.9582V11.9622Z" fill="#171717"/>
</g>
<path d="M12.3946 21.5954C12.3946 21.5954 13.1897 19.5996 14.8682 19.5996C16.5468 19.5996 17.3057 21.5954 17.3057 21.5954C17.3057 21.5954 16.864 23.6594 14.8482 23.6594C12.8323 23.6594 12.3906 21.5954 12.3906 21.5954H12.3946Z" fill="white"/>
<mask id="mask1_6869_22494" style="mask-type:luminance" maskUnits="userSpaceOnUse" x="12" y="19" width="6" height="5">
<path d="M12.3946 21.5954C12.3946 21.5954 13.1897 19.5996 14.8682 19.5996C16.5468 19.5996 17.3057 21.5954 17.3057 21.5954C17.3057 21.5954 16.864 23.6594 14.8482 23.6594C12.8323 23.6594 12.3906 21.5954 12.3906 21.5954H12.3946Z" fill="white"/>
</mask>
<g mask="url(#mask1_6869_22494)">
<path d="M15.0892 25.4107C14.5833 21.5397 15.0892 18.002 15.0892 18.002L12.0253 19.8451L11.7402 22.5075L15.0892 25.4107Z" fill="#171717"/>
</g>
<path d="M18.4181 21.5954C18.4181 21.5954 19.2132 19.5996 20.8917 19.5996C22.5702 19.5996 23.3291 21.5954 23.3291 21.5954C23.3291 21.5954 22.8874 23.6594 20.8716 23.6594C18.8558 23.6594 18.4141 21.5954 18.4141 21.5954H18.4181Z" fill="white"/>
<mask id="mask2_6869_22494" style="mask-type:luminance" maskUnits="userSpaceOnUse" x="18" y="19" width="6" height="5">
<path d="M18.4181 21.5954C18.4181 21.5954 19.2132 19.5996 20.8917 19.5996C22.5702 19.5996 23.3291 21.5954 23.3291 21.5954C23.3291 21.5954 22.8874 23.6594 20.8716 23.6594C18.8558 23.6594 18.4141 21.5954 18.4141 21.5954H18.4181Z" fill="white"/>
</mask>
<g mask="url(#mask2_6869_22494)">
<path d="M21.1127 25.4107C20.6067 21.5397 21.1127 18.002 21.1127 18.002L18.0488 19.8451L17.7637 22.5075L21.1127 25.4107Z" fill="#171717"/>
</g>
<path d="M17.8028 24.5275C18.6367 24.5275 19.3127 23.8516 19.3127 23.0177C19.3127 22.1838 18.6367 21.5078 17.8028 21.5078C16.969 21.5078 16.293 22.1838 16.293 23.0177C16.293 23.8516 16.969 24.5275 17.8028 24.5275Z" fill="#00C8AA"/>
<path d="M16.7148 25.4265C16.7711 26.6031 17.791 27.3098 18.5178 27.1532C19.1965 27.0087 19.7988 26.077 19.5338 25.041" stroke="white" stroke-width="0.194932" stroke-miterlimit="10" stroke-linecap="round"/>
</g>
</g>
</g>
<defs>
<filter id="filter0_d_6869_22494" x="0.000205517" y="-0.000822425" width="44.2105" height="44.2105" filterUnits="userSpaceOnUse" color-interpolation-filters="sRGB">
<feFlood flood-opacity="0" result="BackgroundImageFix"/>
<feColorMatrix in="SourceAlpha" type="matrix" values="0 0 0 0 0 0 0 0 0 0 0 0 0 0 0 0 0 0 127 0" result="hardAlpha"/>
<feOffset dy="0.526316"/>
<feGaussianBlur stdDeviation="1.05263"/>
<feComposite in2="hardAlpha" operator="out"/>
<feColorMatrix type="matrix" values="0 0 0 0 0 0 0 0 0 0 0 0 0 0 0 0 0 0 0.1 0"/>
<feBlend mode="normal" in2="BackgroundImageFix" result="effect1_dropShadow_6869_22494"/>
<feBlend mode="normal" in="SourceGraphic" in2="effect1_dropShadow_6869_22494" result="shape"/>
</filter>
<clipPath id="clip0_6869_22494">
<rect x="2.10547" y="1.57812" width="40" height="40" rx="8" fill="white"/>
</clipPath>
<clipPath id="clip1_6869_22494">
<rect width="54.2105" height="54.2105" fill="white" transform="translate(-2.10547 6.31445)"/>
</clipPath>
</defs>
</svg>
