<svg width="7.161" height="12.51" viewBox="0 0 7.161 12.51" fill="none" xmlns="http://www.w3.org/2000/svg">
<path d="M6.92 0.24482C6.84259 0.16722 6.75066 0.10565 6.64941 0.06364C6.54816 0.02162 6.43959 0 6.33003 0C6.22047 0 6.1119 0.02162 6.01065 0.06364C5.90941 0.10565 5.81747 0.16722 5.74006 0.24482L0.20006 5.78482C0.13825 5.8465 0.08922 5.91976 0.05577 6.00041C0.02231 6.08106 0.00509 6.16751 0.00509 6.25482C0.00509 6.34214 0.02231 6.42859 0.05577 6.50924C0.08922 6.58989 0.13825 6.66315 0.20006 6.72482L5.74006 12.2648C6.06672 12.5915 6.59339 12.5915 6.92006 12.2648C7.24672 11.9382 7.24672 11.4115 6.92006 11.0848L2.09339 6.25149L6.92672 1.41816C7.24672 1.09816 7.24672 0.56482 6.92 0.24482Z" fill="currentColor"/>
</svg>
