<svg width="17" height="17" viewBox="0 0 17 17" fill="none" xmlns="http://www.w3.org/2000/svg">
<path d="M15.4167 10.8333V2.5C15.4167 1.66667 15 1.25 14.1667 1.25H2.5C1.66667 1.25 1.25 1.66667 1.25 2.5V13.6491L2.44954 12.4495L2.5415 12.3665C2.76391 12.1844 3.04332 12.0833 3.33333 12.0833H14.1667L15 13.3333H3.33333L0 16.6667V1.66667C0 0.75 0.75 0 1.66667 0H15C15.9167 0 16.6667 0.75 16.6667 1.66667V11.6667C16.6667 12.5833 15.9167 13.3333 15 13.3333L14.1667 12.0833C15 12.0833 15.4167 11.6667 15.4167 10.8333Z" fill="#909599"/>
</svg>
