<svg width="20" height="20" viewBox="0 0 20 20" fill="none" xmlns="http://www.w3.org/2000/svg">
<path d="M9.99935 1.66797C5.39935 1.66797 1.66602 5.4013 1.66602 10.0013C1.66602 14.6013 5.39935 18.3346 9.99935 18.3346C14.5993 18.3346 18.3327 14.6013 18.3327 10.0013C18.3327 5.4013 14.5993 1.66797 9.99935 1.66797ZM7.74102 13.5763L4.74935 10.5846C4.6722 10.5075 4.611 10.4159 4.56924 10.3151C4.52749 10.2143 4.506 10.1062 4.506 9.99714C4.506 9.88803 4.52749 9.77999 4.56924 9.67918C4.611 9.57838 4.6722 9.48679 4.74935 9.40964C4.8265 9.33248 4.91809 9.27128 5.0189 9.22953C5.1197 9.18778 5.22774 9.16628 5.33685 9.16628C5.44596 9.16628 5.554 9.18778 5.6548 9.22953C5.75561 9.27128 5.8472 9.33248 5.92435 9.40964L8.33268 11.8096L14.066 6.0763C14.2218 5.92049 14.4332 5.83295 14.6535 5.83295C14.8739 5.83295 15.0852 5.92049 15.241 6.0763C15.3968 6.23212 15.4844 6.44345 15.4844 6.6638C15.4844 6.88416 15.3968 7.09549 15.241 7.2513L8.91602 13.5763C8.83892 13.6536 8.74735 13.7148 8.64654 13.7567C8.54572 13.7985 8.43766 13.82 8.32852 13.82C8.21938 13.82 8.11131 13.7985 8.0105 13.7567C7.90968 13.7148 7.81811 13.6536 7.74102 13.5763Z" fill="white"/>
</svg>
