<svg width="48" height="48" viewBox="0 0 48 48" fill="none" xmlns="http://www.w3.org/2000/svg">
<rect width="48" height="48" rx="24" fill="#FF5857" fill-opacity="0.1"/>
<path d="M18 31C18 32.1 18.9 33 20 33H28C29.1 33 30 32.1 30 31V19H18V31ZM21.17 24.59C20.983 24.403 20.878 24.1494 20.878 23.885C20.878 23.6206 20.983 23.367 21.17 23.18C21.357 22.993 21.6106 22.888 21.875 22.888C22.1394 22.888 22.393 22.993 22.58 23.18L24 24.59L25.41 23.18C25.597 22.993 25.8506 22.888 26.115 22.888C26.3794 22.888 26.633 22.993 26.82 23.18C27.007 23.367 27.112 23.6206 27.112 23.885C27.112 24.1494 27.007 24.403 26.82 24.59L25.41 26L26.82 27.41C26.9126 27.5026 26.986 27.6125 27.0361 27.7335C27.0862 27.8544 27.112 27.9841 27.112 28.115C27.112 28.2459 27.0862 28.3756 27.0361 28.4965C26.986 28.6175 26.9126 28.7274 26.82 28.82C26.7274 28.9126 26.6175 28.986 26.4965 29.0361C26.3756 29.0862 26.2459 29.112 26.115 29.112C25.9841 29.112 25.8544 29.0862 25.7335 29.0361C25.6125 28.986 25.5026 28.9126 25.41 28.82L24 27.41L22.59 28.82C22.4974 28.9126 22.3875 28.986 22.2665 29.0361C22.1456 29.0862 22.0159 29.112 21.885 29.112C21.7541 29.112 21.6244 29.0862 21.5035 29.0361C21.3825 28.986 21.2726 28.9126 21.18 28.82C21.0874 28.7274 21.014 28.6175 20.9639 28.4965C20.9138 28.3756 20.888 28.2459 20.888 28.115C20.888 27.9841 20.9138 27.8544 20.9639 27.7335C21.014 27.6125 21.0874 27.5026 21.18 27.41L22.59 26L21.17 24.59ZM30 16H27.5L26.79 15.29C26.61 15.11 26.35 15 26.09 15H21.91C21.65 15 21.39 15.11 21.21 15.29L20.5 16H18C17.45 16 17 16.45 17 17C17 17.55 17.45 18 18 18H30C30.55 18 31 17.55 31 17C31 16.45 30.55 16 30 16Z" fill="#FF5857"/>
</svg>
