<svg width="20" height="20" viewBox="0 0 20 20" fill="none" xmlns="http://www.w3.org/2000/svg">
<path d="M2.5 14.5481V17.0815C2.5 17.3148 2.68333 17.4981 2.91667 17.4981H5.45C5.55833 17.4981 5.66667 17.4565 5.74167 17.3731L14.8417 8.28146L11.7167 5.15646L2.625 14.2481C2.54167 14.3315 2.5 14.4315 2.5 14.5481ZM17.2583 5.8648C17.3356 5.7877 17.3969 5.69613 17.4387 5.59532C17.4805 5.49451 17.502 5.38644 17.502 5.2773C17.502 5.16816 17.4805 5.06009 17.4387 4.95928C17.3969 4.85847 17.3356 4.76689 17.2583 4.6898L15.3083 2.7398C15.2312 2.66254 15.1397 2.60125 15.0389 2.55944C14.938 2.51762 14.83 2.49609 14.7208 2.49609C14.6117 2.49609 14.5036 2.51762 14.4028 2.55944C14.302 2.60125 14.2104 2.66254 14.1333 2.7398L12.6083 4.2648L15.7333 7.3898L17.2583 5.8648Z" fill="white"/>
</svg>
