<svg width="17" height="15" viewBox="0 0 17 15" fill="none" xmlns="http://www.w3.org/2000/svg">
<path d="M8.7168 2.06738C10.0444 0.513457 12.4801 -0.103006 14.4365 1.23828L14.4385 1.23926C15.4771 1.94659 16.1253 3.15515 16.1699 4.41797V4.41895C16.222 5.86545 15.6142 7.20609 14.4023 8.70898C13.1833 10.2208 11.4063 11.8328 9.20801 13.8301L9.12695 13.9043L9.125 13.9053C8.68269 14.3068 8.00084 14.3067 7.55859 13.8994L7.55566 13.8975L7.46387 13.8135L5.89648 12.3887C4.41308 11.0265 3.18681 9.83825 2.27344 8.70605C1.06307 7.20567 0.454642 5.8652 0.50293 4.41797C0.547573 3.15509 1.19564 1.94658 2.23438 1.23926V1.23828C4.1924 -0.0967384 6.62944 0.514645 7.95605 2.06738L8.33594 2.51172L8.7168 2.06738Z" fill="currentColor"/>
</svg>
