<svg width="24" height="24" viewBox="0 0 24 24" fill="none" xmlns="http://www.w3.org/2000/svg">
<rect width="3.48789" height="10.3044" rx="1.74394" transform="matrix(-0.95934 0.282253 0.35008 0.93672 7.79688 13.3633)" fill="#00C8AA"/>
<ellipse cx="3.52024" cy="3.13344" rx="3.52024" ry="3.13344" transform="matrix(-0.994735 0.102484 0.129764 0.991545 23.1875 5.95312)" fill="#00C8AA"/>
<path d="M20.1598 2.95259C19.9754 1.54334 18.4166 0.731444 17.1776 1.39934L9.34252 5.62299L10.5172 14.5986L19.2535 16.8714C20.6187 17.2265 21.8837 16.1248 21.7023 14.7386L20.1598 2.95259Z" fill="#1E2021"/>
<rect width="1.95569" height="9.05217" transform="matrix(-0.994735 0.102484 0.129764 0.991545 9.33789 5.62109)" fill="#00C8AA"/>
<path d="M7.39258 5.82422L4.50233 6.12199C2.01581 6.37817 0.263035 8.59511 0.587404 11.0737C0.911773 13.5522 3.19045 15.3538 5.67698 15.0976L8.56722 14.7998L7.39258 5.82422Z" fill="#1E2021"/>
</svg>
