<svg width="8" height="9" viewBox="0 0 8 9" fill="none" xmlns="http://www.w3.org/2000/svg">
<path d="M6.04511 5.78731L4.19549 7.55639C3.42857 8.32331 2.21053 8.32331 1.48872 7.55639C0.721805 6.78947 0.721805 5.57143 1.48872 4.84962L5.09774 1.2406C5.54887 0.834586 6.22556 0.834586 6.67669 1.2406C7.12782 1.69173 7.12782 2.41353 6.67669 2.81955L3.56391 5.93233C3.42857 6.06767 3.20301 6.06767 3.06767 5.93233C2.93233 5.79699 2.93233 5.57143 3.06767 5.43609L5.36842 3.13534C5.54887 2.95489 5.54887 2.68421 5.36842 2.50376C5.18797 2.32331 4.91729 2.32331 4.73684 2.50376L2.43609 4.84962C1.93985 5.34587 1.93985 6.11278 2.43609 6.60902C2.93233 7.06015 3.69925 7.06015 4.19549 6.60902L7.30827 3.49624C8.1203 2.68421 8.1203 1.42105 7.30827 0.609023C6.49624 -0.203008 5.23308 -0.203008 4.42105 0.609023L0.81203 4.21805C0.270677 4.7594 0 5.4812 0 6.20301C0 7.78196 1.26316 9 2.84211 9C3.60902 9 4.28571 8.68421 4.82707 8.18797L6.67669 6.41889C6.85714 6.23844 6.85714 5.96776 6.67669 5.78731C6.49624 5.60686 6.22556 5.60686 6.04511 5.78731Z" fill="currentColor"/>
</svg>
