<svg width="24" height="24" viewBox="0 0 24 24" fill="none" xmlns="http://www.w3.org/2000/svg">
<path d="M15.4995 14.0005H14.7095L14.4295 13.7305C15.0544 13.0044 15.5112 12.1492 15.767 11.2261C16.0229 10.3029 16.0715 9.33462 15.9095 8.39046C15.4395 5.61046 13.1195 3.39046 10.3195 3.05046C9.3351 2.92593 8.33527 3.02823 7.39651 3.34955C6.45775 3.67087 5.60493 4.20268 4.90332 4.90429C4.20171 5.60591 3.66989 6.45872 3.34858 7.39749C3.02726 8.33625 2.92495 9.33608 3.04949 10.3205C3.38949 13.1205 5.60949 15.4405 8.38949 15.9105C9.33364 16.0725 10.3019 16.0239 11.2251 15.768C12.1483 15.5122 13.0035 15.0554 13.7295 14.4305L13.9995 14.7105V15.5005L18.2495 19.7505C18.6595 20.1605 19.3295 20.1605 19.7395 19.7505C20.1495 19.3405 20.1495 18.6705 19.7395 18.2605L15.4995 14.0005ZM9.49949 14.0005C7.00949 14.0005 4.99949 11.9905 4.99949 9.50046C4.99949 7.01046 7.00949 5.00046 9.49949 5.00046C11.9895 5.00046 13.9995 7.01046 13.9995 9.50046C13.9995 11.9905 11.9895 14.0005 9.49949 14.0005Z" fill="#6E7173"/>
</svg>
