<svg width="20" height="17" viewBox="0 0 20 17" fill="none" xmlns="http://www.w3.org/2000/svg">
<path d="M1.4 16.8828L18.85 9.40281C19.0304 9.32597 19.1842 9.19779 19.2923 9.03421C19.4004 8.87064 19.4581 8.67889 19.4581 8.48281C19.4581 8.28674 19.4004 8.09499 19.2923 7.93141C19.1842 7.76784 19.0304 7.63966 18.85 7.56281L1.4 0.0828133C1.2489 0.0169078 1.08377 -0.0103438 0.919509 0.00351645C0.755246 0.0173767 0.597018 0.0719128 0.459098 0.162205C0.321179 0.252498 0.207908 0.375706 0.129505 0.520713C0.0511009 0.665721 0.010031 0.827967 0.00999999 0.992814L0 5.60281C0 6.10281 0.37 6.53281 0.87 6.59281L15 8.48281L0.87 10.3628C0.37 10.4328 0 10.8628 0 11.3628L0.00999999 15.9728C0.00999999 16.6828 0.74 17.1728 1.4 16.8828Z" fill="currentColor"/>
</svg>
