<svg width="24" height="24" viewBox="0 0 24 24" fill="none" xmlns="http://www.w3.org/2000/svg">
<path d="M14.4 14.8285L10.3 18.75C8.6 20.45 5.9 20.45 4.3 18.75C2.6 17.05 2.6 14.35 4.3 12.75L12.3 4.75C13.3 3.85 14.8 3.85 15.8 4.75C16.8 5.75 16.8 7.35 15.8 8.25L8.9 15.15C8.6 15.45 8.1 15.45 7.8 15.15C7.5 14.85 7.5 14.35 7.8 14.05L12.9 8.95C13.3 8.55 13.3 7.95 12.9 7.55C12.5 7.15 11.9 7.15 11.5 7.55L6.4 12.75C5.3 13.85 5.3 15.55 6.4 16.65C7.5 17.65 9.2 17.65 10.3 16.65L17.2 9.75C19 7.95 19 5.15 17.2 3.35C15.4 1.55 12.6 1.55 10.8 3.35L2.8 11.35C1.6 12.55 1 14.15 1 15.75C1 19.25 3.8 21.95 7.3 21.95C9 21.95 10.5 21.25 11.7 20.15L15.8 16.2285C16.2 15.8285 16.2 15.2285 15.8 14.8285C15.4 14.4285 14.8 14.4285 14.4 14.8285Z" fill="current"/>
<path d="M20.0114 13.9669L16.7486 13.974C16.6161 13.974 16.4848 13.9479 16.3624 13.8972C16.2399 13.8465 16.1286 13.7721 16.0349 13.6784C15.9412 13.5847 15.8668 13.4734 15.8161 13.3509C15.7654 13.2285 15.7392 13.0972 15.7392 12.9646C15.7392 12.8321 15.7654 12.7008 15.8161 12.5784C15.8668 12.4559 15.9412 12.3446 16.0349 12.2509C16.1286 12.1572 16.2399 12.0828 16.3624 12.0321C16.4848 11.9814 16.6161 11.9552 16.7486 11.9552L22.4354 11.9552C22.5677 11.9581 22.6981 11.9871 22.8192 12.0405C23.0634 12.1425 23.2575 12.3366 23.3594 12.5808C23.4129 12.7019 23.4419 12.8323 23.4447 12.9646V18.6514C23.4453 18.7841 23.4196 18.9156 23.369 19.0383C23.3185 19.161 23.2442 19.2725 23.1503 19.3663C23.0565 19.4602 22.945 19.5345 22.8223 19.585C22.6996 19.6356 22.5681 19.6613 22.4354 19.6608C22.3026 19.6613 22.1711 19.6356 22.0484 19.585C21.9257 19.5345 21.8142 19.4602 21.7204 19.3663C21.6266 19.2725 21.5522 19.161 21.5017 19.0383C21.4512 18.9156 21.4254 18.7841 21.426 18.6514L21.4331 15.3886L14.6161 22.2056C14.4276 22.3941 14.1719 22.5 13.9053 22.5C13.6387 22.5 13.383 22.3941 13.1944 22.2056C13.0059 22.017 12.9 21.7613 12.9 21.4947C12.9 21.2281 13.0059 20.9724 13.1944 20.7839L20.0114 13.9669Z" fill="current"/>
</svg>
