<svg width="20" height="20" viewBox="0 0 20 20" fill="none" xmlns="http://www.w3.org/2000/svg">
<path d="M7.80834 4.59167C7.65833 5.13165 7.58263 5.68957 7.58334 6.25C7.58334 9.65 10.35 12.4167 13.75 12.4167C14.3167 12.4167 14.875 12.3417 15.4083 12.1917C14.971 13.2675 14.2228 14.1886 13.2595 14.8372C12.2962 15.4859 11.1614 15.8327 10 15.8333C6.78334 15.8333 4.16667 13.2167 4.16667 10C4.16667 7.55833 5.675 5.45833 7.80834 4.59167ZM10 2.5C8.51664 2.5 7.0666 2.93987 5.83323 3.76398C4.59986 4.58809 3.63856 5.75943 3.07091 7.12987C2.50325 8.50032 2.35472 10.0083 2.64411 11.4632C2.9335 12.918 3.64781 14.2544 4.6967 15.3033C5.7456 16.3522 7.08197 17.0665 8.53683 17.3559C9.99168 17.6453 11.4997 17.4968 12.8701 16.9291C14.2406 16.3614 15.4119 15.4001 16.236 14.1668C17.0601 12.9334 17.5 11.4834 17.5 10C17.5 9.61667 17.4667 9.23333 17.4167 8.86667C17.0002 9.4505 16.45 9.92613 15.8121 10.2538C15.1742 10.5814 14.4671 10.7516 13.75 10.75C12.796 10.75 11.8667 10.447 11.096 9.88472C10.3253 9.3224 9.75321 8.52984 9.46212 7.62134C9.17102 6.71284 9.17602 5.73536 9.47639 4.82988C9.77676 3.9244 10.357 3.13773 11.1333 2.58333C10.7667 2.53333 10.3833 2.5 10 2.5Z" fill="#909599"/>
</svg>
