<svg width="24" height="24" viewBox="0 0 24 24" fill="none" xmlns="http://www.w3.org/2000/svg">
<path d="M10.1947 14.5868L12.7813 12.0002L10.1947 9.41349C10.133 9.35177 10.084 9.27849 10.0506 9.19785C10.0172 9.11721 10 9.03078 10 8.94349C10 8.8562 10.0172 8.76977 10.0506 8.68913C10.084 8.60848 10.133 8.53521 10.1947 8.47349C10.2564 8.41177 10.3297 8.36281 10.4103 8.3294C10.491 8.296 10.5774 8.27881 10.6647 8.27881C10.752 8.27881 10.8384 8.296 10.919 8.3294C10.9997 8.36281 11.073 8.41177 11.1347 8.47349L14.1947 11.5335C14.4547 11.7935 14.4547 12.2135 14.1947 12.4735L11.1347 15.5335C11.073 15.5953 10.9997 15.6443 10.9191 15.6778C10.8384 15.7112 10.752 15.7285 10.6647 15.7285C10.5774 15.7285 10.4909 15.7112 10.4103 15.6778C10.3296 15.6443 10.2564 15.5953 10.1947 15.5335C9.94135 15.2735 9.93468 14.8468 10.1947 14.5868Z" fill="#1E2021"/>
</svg>
