<svg width="76" height="40" viewBox="0 0 76 40" fill="none" xmlns="http://www.w3.org/2000/svg">
<path d="M6.67716 29.9102L3.2002 16.9913H7.98102V21.8359L9.57462 16.9913L12.7618 13.7616L15.9491 20.2211L17.108 7.30222L22.3235 5.68736L20.7299 21.8359L18.8465 29.9102L12.7618 28.2953L11.1682 21.8359L9.57462 29.9102H6.67716Z" fill="#00C8AA"/>
<path d="M11.8057 8.39649C11.8057 10.7728 9.87927 12.6992 7.50293 12.6992C5.1266 12.6992 3.2002 10.7728 3.2002 8.39649C3.2002 6.02015 5.1266 4.09375 7.50293 4.09375C9.87927 4.09375 11.8057 6.02015 11.8057 8.39649Z" fill="#00C8AA"/>
<path d="M60.5448 22.7974V29.8847H57.6921V13.7488H60.478V19.8332H60.634C61.1912 18.4737 62.3501 17.6268 64.2222 17.6268C66.7407 17.6268 68.3899 19.2537 68.3899 22.1733V29.8847H65.5595V22.6191C65.5595 20.9698 64.668 20.0338 63.1747 20.0338C61.6369 20.0338 60.5448 21.0367 60.5448 22.7974Z" fill="#00C8AA"/>
<path d="M55.2405 17.7828V19.9669H52.8557V26.2519C52.8557 27.4108 53.4352 27.656 54.1484 27.656C54.4827 27.656 55.0399 27.6337 55.3965 27.6114V29.9293C55.0622 29.9962 54.505 30.0407 53.7918 30.0407C51.6522 30.0407 50.003 28.9932 50.0253 26.7199V19.9669H48.2869V17.7828H50.0253V14.8854H52.8557V17.7828H55.2405Z" fill="#00C8AA"/>
<path d="M41.623 30.1299C37.9679 30.1299 35.7392 27.7006 35.7392 23.9117C35.7392 20.1675 38.0125 17.6268 41.467 17.6268C44.4312 17.6268 46.9942 19.4766 46.9942 23.7334V24.6249H38.5473C38.5808 26.6865 39.7954 27.9012 41.6453 27.9012C42.8934 27.9012 43.7403 27.3663 44.0969 26.6531H46.8828C46.3702 28.7481 44.4312 30.1299 41.623 30.1299ZM38.5696 22.6859H44.2752C44.2529 21.0367 43.1608 19.8332 41.5115 19.8332C39.7954 19.8332 38.6588 21.137 38.5696 22.6859Z" fill="#00C8AA"/>
<path d="M28.6741 30.1299C25.019 30.1299 22.7903 27.7006 22.7903 23.9117C22.7903 20.1675 25.0636 17.6268 28.5181 17.6268C31.4823 17.6268 34.0453 19.4766 34.0453 23.7334V24.6249H25.5985C25.6319 26.6865 26.8466 27.9012 28.6964 27.9012C29.9445 27.9012 30.7914 27.3663 31.148 26.6531H33.9339C33.4213 28.7481 31.4823 30.1299 28.6741 30.1299ZM25.6208 22.6859H31.3263C31.304 21.0367 30.2119 19.8332 28.5627 19.8332C26.8466 19.8332 25.7099 21.137 25.6208 22.6859Z" fill="#00C8AA"/>
</svg>
