<svg width="82" height="33" viewBox="0 0 82 33" fill="none" xmlns="http://www.w3.org/2000/svg">
<path d="M4.3462 32.2705L0 16.122H5.97603V22.1777L7.96804 16.122L11.9521 12.0849L15.9361 20.1591L17.3848 4.01058L23.9041 1.99201L21.9121 22.1777L19.5579 32.2705L11.9521 30.252L9.96004 22.1777L7.96804 32.2705H4.3462Z" fill="#B7BCBF"/>
<path d="M10.7568 5.37842C10.7568 8.34884 8.34884 10.7568 5.37842 10.7568C2.408 10.7568 0 8.34884 0 5.37842C0 2.408 2.408 0 5.37842 0C8.34884 0 10.7568 2.408 10.7568 5.37842Z" fill="#B7BCBF"/>
<path d="M71.6808 23.3795V32.2387H68.1148V12.0688H71.5972V19.6743H71.7922C72.4887 17.9749 73.9374 16.9163 76.2775 16.9163C79.4256 16.9163 81.4872 18.95 81.4872 22.5995V32.2387H77.9491V23.1567C77.9491 21.0951 76.8347 19.925 74.9682 19.925C73.0459 19.925 71.6808 21.1787 71.6808 23.3795Z" fill="#B7BCBF"/>
<path d="M65.0503 17.1113V19.8414H62.0694V27.6977C62.0694 29.1464 62.7938 29.4528 63.6853 29.4528C64.1031 29.4528 64.7996 29.425 65.2454 29.3971V32.2944C64.8275 32.378 64.131 32.4337 63.2395 32.4337C60.565 32.4337 58.5035 31.1244 58.5313 28.2827V19.8414H56.3583V17.1113H58.5313V13.4896H62.0694V17.1113H65.0503Z" fill="#B7BCBF"/>
<path d="M48.0285 32.5452C43.4596 32.5452 40.6737 29.5085 40.6737 24.7725C40.6737 20.0922 43.5153 16.9163 47.8335 16.9163C51.5387 16.9163 54.7425 19.2286 54.7425 24.5496V25.664H44.1839C44.2257 28.2409 45.744 29.7593 48.0563 29.7593C49.6164 29.7593 50.6751 29.0906 51.1208 28.1992H54.6032C53.9625 30.8179 51.5387 32.5452 48.0285 32.5452ZM44.2118 23.2402H51.3437C51.3158 21.1787 49.9508 19.6743 47.8892 19.6743C45.744 19.6743 44.3232 21.304 44.2118 23.2402Z" fill="#B7BCBF"/>
<path d="M31.8424 32.5452C27.2735 32.5452 24.4876 29.5085 24.4876 24.7725C24.4876 20.0922 27.3292 16.9163 31.6474 16.9163C35.3526 16.9163 38.5564 19.2286 38.5564 24.5496V25.664H27.9979C28.0396 28.2409 29.558 29.7593 31.8703 29.7593C33.4304 29.7593 34.489 29.0906 34.9347 28.1992H38.4171C37.7764 30.8179 35.3526 32.5452 31.8424 32.5452ZM28.0257 23.2402H35.1576C35.1298 21.1787 33.7647 19.6743 31.7031 19.6743C29.558 19.6743 28.1371 21.304 28.0257 23.2402Z" fill="#B7BCBF"/>
</svg>
