<svg width="24" height="24" viewBox="0 0 24 24" fill="none" xmlns="http://www.w3.org/2000/svg">
<path d="M8.12033 22.0002L5.90332 13.8712H8.95171V16.9196L9.96784 13.8712L12.0001 11.8389L14.0324 15.9035L14.7714 7.77443L18.0969 6.7583L17.0807 16.9196L15.8799 22.0002L12.0001 20.9841L10.984 16.9196L9.96784 22.0002H8.12033Z" fill="#00DDA8"/>
<circle cx="8.613" cy="8.45187" r="2.70968" fill="#00DDA8"/>
<path d="M12.3356 3.73378C9.85769 2.94213 8.06342 4.64062 7.43307 5.72326L11.3048 6.96022L12.3356 3.73378Z" fill="#FF5858"/>
<circle cx="11.8962" cy="2.88245" r="0.677419" transform="rotate(17.7179 11.8962 2.88245)" fill="white"/>
<circle cx="11.6901" cy="3.52772" r="0.677419" transform="rotate(17.7179 11.6901 3.52772)" fill="white"/>
<circle cx="12.3356" cy="3.73377" r="0.677419" transform="rotate(17.7179 12.3356 3.73377)" fill="white"/>
<circle cx="7.43229" cy="5.72327" r="0.677419" transform="rotate(17.7179 7.43229 5.72327)" fill="white"/>
<circle cx="8.0778" cy="5.92957" r="0.677419" transform="rotate(17.7179 8.0778 5.92957)" fill="white"/>
<circle cx="8.72331" cy="6.13563" r="0.677419" transform="rotate(17.7179 8.72331 6.13563)" fill="white"/>
<circle cx="9.36784" cy="6.34192" r="0.677419" transform="rotate(17.7179 9.36784 6.34192)" fill="white"/>
<circle cx="10.0143" cy="6.54798" r="0.677419" transform="rotate(17.7179 10.0143 6.54798)" fill="white"/>
<circle cx="10.6589" cy="6.75403" r="0.677419" transform="rotate(17.7179 10.6589 6.75403)" fill="white"/>
<circle cx="11.3044" cy="6.96033" r="0.677419" transform="rotate(17.7179 11.3044 6.96033)" fill="white"/>
<circle cx="12.5417" cy="3.08851" r="0.677419" transform="rotate(17.7179 12.5417 3.08851)" fill="white"/>
</svg>
